<?xml version="1.0" encoding="utf-8"?>
<!-- Generator: Adobe Illustrator 17.0.0, SVG Export Plug-In . SVG Version: 6.00 Build 0)  -->
<!DOCTYPE svg PUBLIC "-//W3C//DTD SVG 1.1//EN" "http://www.w3.org/Graphics/SVG/1.1/DTD/svg11.dtd">
<svg version="1.1" xmlns="http://www.w3.org/2000/svg" xmlns:xlink="http://www.w3.org/1999/xlink" x="0px" y="0px" width="180px"
	 height="20px" viewBox="0 0 180 20" enable-background="new 0 0 180 20" xml:space="preserve">
<g id="Layer_1">
</g>
<g id="Layer_1_copy">
	<g>
		<g>
			<polygon fill="#FFC864" points="12.504,12.546 12.504,9.53 18.171,9.53 18.171,6.303 12.504,6.303 12.504,3.228 19.423,3.228 
				19.423,0 9.118,0 9.118,15.774 19.841,15.774 19.841,12.546 			"/>
			<path fill="#FFC864" d="M32.051,9.862c1.951-0.783,3.009-2.402,3.009-4.66C35.06,1.945,33.004,0,29.559,0H23.72v15.774h3.387
				v-5.388h1.263l3.738,5.388h4.096L32.051,9.862z M27.107,3.228h2.214c2.293,0,2.293,1.457,2.293,1.935
				c0,1.324-0.852,1.995-2.532,1.995h-1.975V3.228z"/>
			<path fill="#FFC864" d="M44.8,0h-5.759v15.774h3.387v-5.388h2.074c3.631,0,5.799-1.938,5.799-5.183C50.301,1.945,48.244,0,44.8,0
				z M42.427,3.228h2.194c1.482,0,2.233,0.651,2.233,1.935c0,0.493,0,1.995-2.512,1.995h-1.915V3.228z"/>
		</g>
		<g>
			<path fill="#FFFFFF" d="M58.364,14.284l1.039-1.243c0.946,1.188,2.357,1.782,3.637,1.782c1.615,0,2.709-0.742,2.709-2.023
				c0-1.466-1.188-1.856-2.951-2.524c-1.949-0.724-3.934-1.559-3.934-3.879c0-1.967,1.763-3.489,4.027-3.489
				c1.466,0,2.914,0.538,4.157,1.54l-0.984,1.281c-1.058-0.872-2.19-1.336-3.173-1.336c-1.243,0-2.338,0.668-2.357,1.93
				c-0.019,1.262,1.169,1.726,2.821,2.357c2.208,0.872,4.083,1.466,4.083,3.934c0,2.413-2.116,3.712-4.417,3.712
				C61.37,16.326,59.681,15.695,58.364,14.284z"/>
			<path fill="#FFFFFF" d="M74.268,8.531l-0.019-0.056h-4.955V7.177h7.033v1.076l-5.27,6.644l0.019,0.019h5.252v1.299h-7.312v-1.095
				L74.268,8.531z"/>
			<path fill="#FFFFFF" d="M77.627,11.76c0-2.672,1.837-4.695,4.398-4.695c1.336,0,2.505,0.631,3.155,1.726l0.037-0.019V7.177h1.503
				v9.038h-1.447v-1.633h-0.019c-0.649,1.076-1.763,1.744-3.229,1.744C79.538,16.326,77.627,14.507,77.627,11.76z M85.273,11.76
				c0-1.856-1.243-3.322-3.025-3.322c-1.707,0-3.099,1.318-3.099,3.322c0,1.819,1.243,3.192,3.099,3.192
				C83.918,14.952,85.273,13.672,85.273,11.76z"/>
			<path fill="#FFFFFF" d="M90.933,2.556v9.557l0.019,0.019l4.435-4.955h1.819l-3.377,3.73l3.415,5.307h-1.726l-2.728-4.25
				l-1.856,2.004v2.246H89.43V2.556H90.933z"/>
			<path fill="#FFFFFF" d="M97.986,11.76c0-2.672,1.874-4.695,4.417-4.695c1.373,0,2.542,0.631,3.229,1.726h0.019V2.556h1.503
				v13.659h-1.448v-1.67h-0.018c-0.65,1.095-1.8,1.782-3.266,1.782C99.916,16.326,97.986,14.507,97.986,11.76z M105.706,11.76
				c0-1.856-1.243-3.322-3.062-3.322c-1.726,0-3.118,1.318-3.118,3.322c0,1.819,1.262,3.192,3.099,3.192
				C104.332,14.952,105.706,13.672,105.706,11.76z"/>
			<path fill="#FFFFFF" d="M109.071,11.705c0-2.598,1.874-4.639,4.677-4.639c2.672,0,4.658,1.893,4.658,4.639
				c0,2.747-1.986,4.621-4.658,4.621C110.945,16.326,109.071,14.303,109.071,11.705z M116.865,11.705
				c0-1.93-1.373-3.266-3.118-3.266c-1.893,0-3.136,1.466-3.136,3.266s1.262,3.248,3.136,3.248
				C115.473,14.952,116.865,13.635,116.865,11.705z"/>
			<path fill="#FFFFFF" d="M121.957,2.556v13.659h-1.503V2.556H121.957z"/>
			<path fill="#FFFFFF" d="M124.895,19.016l0.371-1.336c1.039,0.594,1.949,0.947,3.248,0.947c2.041,0,3.025-1.188,3.025-2.709V14.47
				h-0.037c-0.668,0.965-1.744,1.577-3.136,1.577c-2.468,0-4.38-1.782-4.38-4.472c0-2.579,1.782-4.509,4.324-4.509
				c1.281,0,2.45,0.575,3.173,1.559h0.037V7.177h1.503v8.369c0,2.598-1.299,4.454-4.454,4.454
				C127.215,20,125.971,19.666,124.895,19.016z M131.576,11.501c0-1.819-1.318-3.044-3.006-3.044c-1.837,0-3.062,1.318-3.062,3.081
				c0,1.911,1.336,3.118,3.044,3.118C130.37,14.655,131.576,13.301,131.576,11.501z"/>
			<path fill="#FFFFFF" d="M135.139,11.705c0-2.598,1.874-4.639,4.677-4.639c2.672,0,4.658,1.893,4.658,4.639
				c0,2.747-1.986,4.621-4.658,4.621C137.013,16.326,135.139,14.303,135.139,11.705z M142.933,11.705
				c0-1.93-1.373-3.266-3.118-3.266c-1.893,0-3.136,1.466-3.136,3.266s1.262,3.248,3.136,3.248
				C141.542,14.952,142.933,13.635,142.933,11.705z"/>
			<path fill="#FFFFFF" d="M150.988,8.531l-0.019-0.056h-4.955V7.177h7.033v1.076l-5.27,6.644l0.019,0.019h5.252v1.299h-7.312
				v-1.095L150.988,8.531z"/>
			<path fill="#FFFFFF" d="M154.347,11.76c0-2.672,1.837-4.695,4.398-4.695c1.336,0,2.505,0.631,3.155,1.726l0.037-0.019V7.177
				h1.503v9.038h-1.448v-1.633h-0.019c-0.649,1.076-1.763,1.744-3.229,1.744C156.259,16.326,154.347,14.507,154.347,11.76z
				 M161.993,11.76c0-1.856-1.243-3.322-3.025-3.322c-1.707,0-3.099,1.318-3.099,3.322c0,1.819,1.243,3.192,3.099,3.192
				C160.638,14.952,161.993,13.672,161.993,11.76z"/>
			<path fill="#FFFFFF" d="M166.354,13.523V8.476h-1.169V7.177h1.169V4.096l1.503-0.167v3.248h2.988v1.299h-2.988v4.825
				c0,1.095,0.241,1.615,1.095,1.615c0.538,0,1.095-0.223,1.54-0.464l0.39,1.318c-0.501,0.297-1.113,0.557-2.19,0.557
				C167.097,16.326,166.354,15.342,166.354,13.523z"/>
		</g>
	</g>
</g>
</svg>
