<?xml version="1.0" encoding="utf-8"?>
<!-- Generator: Adobe Illustrator 17.0.0, SVG Export Plug-In . SVG Version: 6.00 Build 0)  -->
<!DOCTYPE svg PUBLIC "-//W3C//DTD SVG 1.1//EN" "http://www.w3.org/Graphics/SVG/1.1/DTD/svg11.dtd">
<svg version="1.1" xmlns="http://www.w3.org/2000/svg" xmlns:xlink="http://www.w3.org/1999/xlink" x="0px" y="0px" width="180px"
	 height="20px" viewBox="0 0 180 20" enable-background="new 0 0 180 20" xml:space="preserve">
<g id="Layer_1">
</g>
<g id="Layer_1_copy">
	<g>
		<g>
			<path fill="#FFC864" d="M15.888,13.881c0.281,0.267,0.422,0.575,0.422,0.925c0,0.381-0.141,0.693-0.422,0.937
				c-0.281,0.244-0.631,0.366-1.048,0.366H6.769c-0.418,0-0.767-0.133-1.048-0.4c-0.281-0.266-0.422-0.598-0.422-0.994V1.509
				c0-0.396,0.14-0.727,0.422-0.994c0.281-0.266,0.63-0.4,1.048-0.4h8.071c0.418,0,0.767,0.126,1.048,0.377
				c0.281,0.251,0.422,0.575,0.422,0.971c0,0.381-0.137,0.689-0.41,0.925c-0.273,0.236-0.626,0.354-1.06,0.354H8.311v3.884h5.445
				c0.417,0,0.767,0.126,1.048,0.377c0.281,0.251,0.422,0.575,0.422,0.971c0,0.381-0.137,0.689-0.41,0.925
				c-0.273,0.236-0.626,0.354-1.06,0.354H8.311v4.227h6.529C15.257,13.482,15.607,13.615,15.888,13.881z"/>
			<path fill="#FFC864" d="M33.579,14.35c0.121,0.198,0.181,0.404,0.181,0.617c0,0.274-0.096,0.525-0.289,0.754
				c-0.241,0.274-0.611,0.411-1.108,0.411c-0.385,0-0.739-0.083-1.06-0.251c-1.156-0.624-1.735-1.896-1.735-3.816
				c0-0.548-0.189-0.982-0.566-1.302c-0.378-0.32-0.92-0.48-1.626-0.48H22.87v4.432c0,0.411-0.117,0.747-0.349,1.005
				c-0.233,0.259-0.542,0.388-0.928,0.388c-0.466,0-0.871-0.133-1.217-0.4c-0.346-0.266-0.518-0.598-0.518-0.994V1.509
				c0-0.396,0.14-0.727,0.422-0.994c0.281-0.266,0.63-0.4,1.048-0.4h6.939c0.835,0,1.622,0.213,2.361,0.64
				c0.739,0.427,1.329,1.013,1.771,1.759c0.442,0.747,0.663,1.584,0.663,2.513c0,0.762-0.217,1.504-0.651,2.228
				c-0.434,0.724-0.996,1.299-1.686,1.725c1.012,0.67,1.566,1.569,1.662,2.696c0.048,0.244,0.072,0.48,0.072,0.708
				c0.064,0.472,0.128,0.811,0.193,1.017c0.064,0.206,0.209,0.362,0.434,0.468C33.294,13.992,33.459,14.152,33.579,14.35z
				 M28.99,7.541c0.273-0.259,0.498-0.605,0.674-1.04c0.177-0.434,0.265-0.903,0.265-1.405c0-0.426-0.088-0.819-0.265-1.177
				c-0.177-0.358-0.402-0.643-0.674-0.857c-0.273-0.213-0.554-0.32-0.843-0.32H22.87V7.93h5.276C28.435,7.93,28.716,7.8,28.99,7.541
				z"/>
			<path fill="#FFC864" d="M46.609,0.813c0.739,0.465,1.333,1.089,1.783,1.873c0.449,0.785,0.674,1.641,0.674,2.57
				c0,0.914-0.225,1.767-0.674,2.559c-0.45,0.792-1.044,1.42-1.783,1.885c-0.739,0.465-1.518,0.697-2.337,0.697H40.08v4.318
				c0,0.411-0.129,0.747-0.385,1.005c-0.257,0.259-0.594,0.388-1.012,0.388c-0.402,0-0.731-0.133-0.988-0.4
				c-0.257-0.266-0.385-0.598-0.385-0.994V1.509c0-0.396,0.14-0.727,0.422-0.994c0.281-0.266,0.63-0.4,1.048-0.4h5.493
				C45.091,0.116,45.87,0.348,46.609,0.813z M45.175,7.427c0.297-0.244,0.538-0.56,0.723-0.948c0.185-0.388,0.277-0.796,0.277-1.222
				c0-0.426-0.093-0.834-0.277-1.222c-0.185-0.388-0.426-0.7-0.723-0.937c-0.297-0.236-0.598-0.354-0.903-0.354H40.08v5.049h4.192
				C44.577,7.793,44.878,7.671,45.175,7.427z"/>
		</g>
		<g>
			<path fill="#FFFFFF" d="M59.361,16.019c-0.727-0.266-1.421-0.697-2.082-1.294c-0.273-0.234-0.409-0.499-0.409-0.798
				c0-0.234,0.091-0.444,0.273-0.633c0.182-0.188,0.396-0.282,0.642-0.282c0.22,0,0.409,0.071,0.564,0.214
				c0.519,0.48,1.054,0.834,1.606,1.061c0.551,0.227,1.177,0.341,1.878,0.341c0.817,0,1.508-0.188,2.073-0.564
				c0.564-0.376,0.847-0.85,0.847-1.421c-0.013-0.674-0.295-1.197-0.847-1.567c-0.552-0.37-1.392-0.678-2.52-0.924
				c-1.337-0.272-2.365-0.72-3.085-1.343c-0.72-0.623-1.08-1.486-1.08-2.589c0-0.765,0.201-1.437,0.603-2.014
				c0.402-0.577,0.96-1.022,1.674-1.333c0.713-0.312,1.518-0.467,2.413-0.467c0.804,0,1.563,0.13,2.277,0.389
				c0.713,0.26,1.291,0.603,1.732,1.031c0.298,0.26,0.448,0.539,0.448,0.837c0,0.234-0.087,0.441-0.263,0.623
				c-0.175,0.182-0.386,0.273-0.633,0.273c-0.182,0-0.331-0.052-0.448-0.156c-0.338-0.337-0.805-0.623-1.401-0.856
				c-0.597-0.234-1.168-0.35-1.713-0.35c-0.87,0-1.56,0.178-2.073,0.535c-0.513,0.357-0.769,0.827-0.769,1.411
				c0,0.636,0.256,1.122,0.769,1.46c0.512,0.338,1.275,0.623,2.287,0.856c1.012,0.221,1.839,0.48,2.481,0.778
				c0.642,0.299,1.139,0.714,1.489,1.246c0.35,0.532,0.526,1.226,0.526,2.082c0,0.753-0.211,1.421-0.633,2.005
				c-0.422,0.584-0.996,1.038-1.723,1.362c-0.727,0.324-1.525,0.487-2.394,0.487C60.925,16.418,60.088,16.285,59.361,16.019z"/>
			<path fill="#FFFFFF" d="M75.363,14.754c0.168,0.162,0.253,0.367,0.253,0.613c0,0.247-0.085,0.451-0.253,0.613
				c-0.169,0.162-0.377,0.243-0.623,0.243h-6.286c-0.247,0-0.451-0.091-0.613-0.273c-0.162-0.182-0.243-0.37-0.243-0.564
				c0.013-0.169,0.039-0.308,0.078-0.419c0.039-0.11,0.11-0.237,0.214-0.38l5.099-6.812h-4.223c-0.247,0-0.454-0.084-0.623-0.253
				c-0.169-0.168-0.253-0.376-0.253-0.623c0-0.246,0.081-0.448,0.243-0.603c0.162-0.156,0.373-0.234,0.633-0.234h5.975
				c0.246,0,0.451,0.091,0.613,0.273c0.162,0.182,0.237,0.402,0.224,0.662c-0.013,0.13-0.036,0.243-0.068,0.341
				c-0.033,0.097-0.101,0.205-0.204,0.321l-5.138,6.851h4.574C74.986,14.511,75.194,14.592,75.363,14.754z"/>
			<path fill="#FFFFFF" d="M85.861,6.151c0.175,0.175,0.263,0.406,0.263,0.691v8.447c0,0.26-0.088,0.48-0.263,0.662
				c-0.175,0.182-0.399,0.273-0.671,0.273c-0.272,0-0.493-0.088-0.662-0.263c-0.169-0.175-0.253-0.399-0.253-0.671v-0.506
				c-0.338,0.454-0.798,0.84-1.382,1.158c-0.584,0.318-1.213,0.477-1.888,0.477c-0.882,0-1.683-0.227-2.404-0.681
				c-0.72-0.454-1.284-1.087-1.693-1.898c-0.409-0.811-0.613-1.722-0.613-2.734s0.204-1.923,0.613-2.734
				c0.409-0.811,0.97-1.443,1.684-1.898c0.713-0.454,1.499-0.681,2.355-0.681c0.688,0,1.326,0.143,1.917,0.428
				c0.59,0.286,1.061,0.649,1.411,1.09V6.842c0-0.272,0.084-0.499,0.253-0.681c0.168-0.182,0.389-0.272,0.662-0.272
				C85.462,5.889,85.686,5.976,85.861,6.151z M82.844,14.238c0.473-0.311,0.843-0.74,1.109-1.284
				c0.266-0.545,0.399-1.161,0.399-1.849c0-0.675-0.133-1.285-0.399-1.83c-0.266-0.545-0.636-0.976-1.109-1.294
				c-0.474-0.318-1.015-0.477-1.625-0.477c-0.61,0-1.152,0.156-1.625,0.467c-0.474,0.312-0.843,0.74-1.109,1.285
				c-0.266,0.545-0.399,1.161-0.399,1.849c0,0.688,0.133,1.304,0.399,1.849c0.266,0.545,0.636,0.973,1.109,1.284
				c0.474,0.312,1.015,0.467,1.625,0.467C81.829,14.705,82.37,14.549,82.844,14.238z"/>
			<path fill="#FFFFFF" d="M97.116,15.289c0,0.26-0.101,0.477-0.302,0.652c-0.201,0.175-0.412,0.263-0.633,0.263
				c-0.285,0-0.513-0.104-0.681-0.312l-3.834-4.067l-1.168,1.051v2.413c0,0.26-0.088,0.48-0.263,0.662
				c-0.175,0.182-0.392,0.273-0.652,0.273c-0.273,0-0.496-0.091-0.671-0.273c-0.175-0.182-0.263-0.402-0.263-0.662V2.755
				c0-0.259,0.087-0.48,0.263-0.662c0.175-0.182,0.399-0.273,0.671-0.273c0.259,0,0.477,0.091,0.652,0.273
				c0.175,0.182,0.263,0.402,0.263,0.662v7.902l4.768-4.379c0.22-0.195,0.448-0.292,0.681-0.292c0.22,0,0.421,0.094,0.603,0.282
				c0.182,0.188,0.273,0.386,0.273,0.594c0,0.26-0.124,0.493-0.37,0.701l-3.367,2.997l3.737,4.048
				C97.018,14.816,97.116,15.043,97.116,15.289z"/>
			<path fill="#FFFFFF" d="M107.452,2.084c0.175,0.175,0.263,0.399,0.263,0.671v12.534c0,0.26-0.088,0.48-0.263,0.662
				c-0.175,0.182-0.399,0.273-0.671,0.273c-0.272,0-0.493-0.088-0.662-0.263c-0.169-0.175-0.253-0.399-0.253-0.671v-0.545
				c-0.325,0.467-0.782,0.863-1.372,1.187c-0.591,0.324-1.223,0.487-1.898,0.487c-0.882,0-1.68-0.227-2.394-0.681
				c-0.714-0.454-1.278-1.087-1.693-1.898c-0.415-0.811-0.623-1.722-0.623-2.734s0.204-1.923,0.613-2.734
				c0.409-0.811,0.97-1.443,1.684-1.898c0.713-0.454,1.499-0.681,2.355-0.681c0.688,0,1.323,0.143,1.907,0.428
				c0.584,0.286,1.057,0.655,1.421,1.109V2.755c0-0.272,0.084-0.496,0.253-0.671c0.168-0.175,0.389-0.263,0.662-0.263
				C107.053,1.821,107.277,1.909,107.452,2.084z M104.435,14.238c0.473-0.311,0.843-0.74,1.109-1.284
				c0.266-0.545,0.399-1.161,0.399-1.849c0-0.675-0.133-1.288-0.399-1.839c-0.266-0.551-0.636-0.983-1.109-1.294
				c-0.474-0.311-1.015-0.467-1.625-0.467c-0.61,0-1.152,0.156-1.625,0.467c-0.474,0.312-0.843,0.743-1.109,1.294
				c-0.266,0.552-0.399,1.165-0.399,1.839c0,0.688,0.133,1.304,0.399,1.849c0.266,0.545,0.636,0.973,1.109,1.284
				c0.474,0.312,1.015,0.467,1.625,0.467C103.42,14.705,103.961,14.549,104.435,14.238z"/>
			<path fill="#FFFFFF" d="M119.172,13.849c-0.454,0.805-1.074,1.434-1.859,1.888c-0.785,0.454-1.651,0.681-2.598,0.681
				c-0.947,0-1.813-0.227-2.598-0.681c-0.785-0.454-1.405-1.083-1.859-1.888c-0.454-0.804-0.681-1.713-0.681-2.725
				s0.227-1.927,0.681-2.744c0.454-0.817,1.073-1.453,1.859-1.907c0.785-0.454,1.651-0.681,2.598-0.681
				c0.947,0,1.813,0.227,2.598,0.681c0.785,0.454,1.404,1.09,1.859,1.907c0.454,0.817,0.681,1.732,0.681,2.744
				S119.626,13.044,119.172,13.849z M117.566,9.246c-0.292-0.551-0.688-0.98-1.187-1.285c-0.499-0.305-1.054-0.457-1.664-0.457
				c-0.61,0-1.165,0.153-1.664,0.457c-0.5,0.305-0.895,0.733-1.187,1.285c-0.292,0.552-0.438,1.177-0.438,1.878
				c0,0.688,0.146,1.304,0.438,1.849c0.292,0.545,0.687,0.97,1.187,1.275c0.499,0.305,1.054,0.457,1.664,0.457
				c0.61,0,1.165-0.152,1.664-0.457c0.499-0.305,0.895-0.73,1.187-1.275c0.292-0.545,0.438-1.161,0.438-1.849
				C118.004,10.423,117.858,9.798,117.566,9.246z"/>
			<path fill="#FFFFFF" d="M123.385,15.951c-0.182,0.182-0.402,0.273-0.662,0.273c-0.26,0-0.477-0.091-0.652-0.273
				c-0.175-0.182-0.263-0.402-0.263-0.662V2.755c0-0.259,0.09-0.48,0.272-0.662c0.182-0.182,0.402-0.273,0.662-0.273
				c0.259,0,0.477,0.091,0.652,0.273c0.175,0.182,0.263,0.402,0.263,0.662v12.534C123.658,15.549,123.567,15.769,123.385,15.951z"/>
			<path fill="#FFFFFF" d="M135.465,6.151c0.175,0.175,0.263,0.406,0.263,0.691v8.563c0,1.051-0.224,1.93-0.671,2.637
				c-0.448,0.707-1.054,1.229-1.82,1.567c-0.766,0.337-1.628,0.506-2.589,0.506c-0.519,0-1.126-0.091-1.82-0.273
				c-0.694-0.182-1.138-0.37-1.333-0.564c-0.402-0.208-0.603-0.467-0.603-0.778c0-0.078,0.026-0.182,0.078-0.312
				c0.143-0.324,0.383-0.487,0.72-0.487c0.168,0,0.35,0.039,0.545,0.117c1.038,0.402,1.849,0.603,2.433,0.603
				c1.038,0,1.832-0.25,2.384-0.749c0.551-0.5,0.827-1.184,0.827-2.053v-1.051c-0.273,0.506-0.73,0.941-1.372,1.304
				c-0.642,0.363-1.321,0.545-2.034,0.545c-0.895,0-1.713-0.227-2.452-0.681c-0.74-0.454-1.32-1.087-1.742-1.898
				c-0.422-0.811-0.633-1.722-0.633-2.734s0.211-1.923,0.633-2.734c0.421-0.811,0.999-1.443,1.732-1.898
				c0.733-0.454,1.541-0.681,2.423-0.681c0.713,0,1.379,0.162,1.995,0.487c0.616,0.324,1.1,0.72,1.45,1.187V6.842
				c0-0.272,0.084-0.499,0.253-0.681c0.168-0.182,0.389-0.272,0.662-0.272C135.066,5.889,135.29,5.976,135.465,6.151z
				 M132.38,14.248c0.493-0.305,0.879-0.733,1.158-1.284c0.279-0.551,0.418-1.171,0.418-1.859c0-0.688-0.139-1.304-0.418-1.849
				c-0.279-0.545-0.665-0.973-1.158-1.285c-0.493-0.311-1.058-0.467-1.693-0.467c-0.623,0-1.181,0.156-1.674,0.467
				c-0.493,0.312-0.879,0.743-1.158,1.294c-0.279,0.552-0.419,1.165-0.419,1.839c0,0.675,0.139,1.288,0.419,1.839
				c0.279,0.552,0.665,0.983,1.158,1.294c0.493,0.312,1.051,0.467,1.674,0.467C131.323,14.705,131.887,14.553,132.38,14.248z"/>
			<path fill="#FFFFFF" d="M147.197,13.849c-0.454,0.805-1.074,1.434-1.859,1.888c-0.785,0.454-1.651,0.681-2.598,0.681
				c-0.947,0-1.813-0.227-2.598-0.681c-0.785-0.454-1.405-1.083-1.859-1.888c-0.454-0.804-0.681-1.713-0.681-2.725
				s0.227-1.927,0.681-2.744c0.454-0.817,1.073-1.453,1.859-1.907c0.785-0.454,1.651-0.681,2.598-0.681
				c0.947,0,1.813,0.227,2.598,0.681c0.785,0.454,1.404,1.09,1.859,1.907c0.454,0.817,0.681,1.732,0.681,2.744
				S147.651,13.044,147.197,13.849z M145.591,9.246c-0.292-0.551-0.688-0.98-1.187-1.285c-0.499-0.305-1.054-0.457-1.664-0.457
				c-0.61,0-1.165,0.153-1.664,0.457c-0.5,0.305-0.895,0.733-1.187,1.285c-0.292,0.552-0.438,1.177-0.438,1.878
				c0,0.688,0.146,1.304,0.438,1.849s0.687,0.97,1.187,1.275c0.499,0.305,1.054,0.457,1.664,0.457c0.61,0,1.165-0.152,1.664-0.457
				c0.499-0.305,0.895-0.73,1.187-1.275s0.438-1.161,0.438-1.849C146.029,10.423,145.883,9.798,145.591,9.246z"/>
			<path fill="#FFFFFF" d="M156.278,14.754c0.168,0.162,0.253,0.367,0.253,0.613c0,0.247-0.085,0.451-0.253,0.613
				c-0.169,0.162-0.377,0.243-0.623,0.243h-6.286c-0.247,0-0.451-0.091-0.613-0.273c-0.162-0.182-0.243-0.37-0.243-0.564
				c0.013-0.169,0.039-0.308,0.078-0.419c0.039-0.11,0.11-0.237,0.214-0.38l5.099-6.812h-4.223c-0.247,0-0.454-0.084-0.623-0.253
				c-0.169-0.168-0.253-0.376-0.253-0.623c0-0.246,0.081-0.448,0.243-0.603c0.162-0.156,0.373-0.234,0.633-0.234h5.975
				c0.246,0,0.451,0.091,0.613,0.273c0.162,0.182,0.237,0.402,0.224,0.662c-0.013,0.13-0.036,0.243-0.068,0.341
				c-0.033,0.097-0.101,0.205-0.204,0.321l-5.138,6.851h4.574C155.901,14.511,156.109,14.592,156.278,14.754z"/>
			<path fill="#FFFFFF" d="M166.776,6.151c0.175,0.175,0.263,0.406,0.263,0.691v8.447c0,0.26-0.088,0.48-0.263,0.662
				c-0.175,0.182-0.399,0.273-0.671,0.273c-0.272,0-0.493-0.088-0.662-0.263c-0.169-0.175-0.253-0.399-0.253-0.671v-0.506
				c-0.338,0.454-0.798,0.84-1.382,1.158c-0.584,0.318-1.213,0.477-1.888,0.477c-0.882,0-1.683-0.227-2.404-0.681
				c-0.72-0.454-1.284-1.087-1.693-1.898c-0.409-0.811-0.613-1.722-0.613-2.734s0.204-1.923,0.613-2.734
				c0.409-0.811,0.97-1.443,1.684-1.898c0.713-0.454,1.499-0.681,2.355-0.681c0.688,0,1.326,0.143,1.917,0.428
				c0.59,0.286,1.061,0.649,1.411,1.09V6.842c0-0.272,0.084-0.499,0.253-0.681c0.168-0.182,0.389-0.272,0.662-0.272
				C166.377,5.889,166.601,5.976,166.776,6.151z M163.759,14.238c0.473-0.311,0.843-0.74,1.109-1.284
				c0.266-0.545,0.399-1.161,0.399-1.849c0-0.675-0.133-1.285-0.399-1.83c-0.266-0.545-0.636-0.976-1.109-1.294
				c-0.474-0.318-1.015-0.477-1.625-0.477c-0.61,0-1.152,0.156-1.625,0.467c-0.474,0.312-0.843,0.74-1.109,1.285
				c-0.266,0.545-0.399,1.161-0.399,1.849c0,0.688,0.133,1.304,0.399,1.849c0.266,0.545,0.636,0.973,1.109,1.284
				c0.474,0.312,1.015,0.467,1.625,0.467C162.744,14.705,163.285,14.549,163.759,14.238z"/>
			<path fill="#FFFFFF" d="M172.229,7.835v5.8c0,0.649,0.292,0.973,0.876,0.973c0.091,0,0.214-0.023,0.37-0.068
				c0.156-0.045,0.279-0.068,0.37-0.068c0.169,0,0.312,0.071,0.428,0.214c0.117,0.143,0.175,0.325,0.175,0.545
				c0,0.272-0.156,0.506-0.467,0.701c-0.311,0.195-0.662,0.292-1.051,0.292c-0.428,0-0.821-0.045-1.178-0.136
				c-0.357-0.091-0.675-0.321-0.954-0.691c-0.279-0.37-0.419-0.931-0.419-1.684V7.835h-1.129c-0.247,0-0.451-0.081-0.613-0.243
				c-0.162-0.162-0.243-0.366-0.243-0.613c0-0.246,0.081-0.448,0.243-0.603c0.162-0.156,0.366-0.234,0.613-0.234h1.129V4.507
				c0-0.259,0.088-0.48,0.263-0.662c0.175-0.182,0.399-0.273,0.671-0.273c0.259,0,0.477,0.091,0.652,0.273
				c0.175,0.182,0.263,0.402,0.263,0.662v1.635h1.615c0.246,0,0.451,0.081,0.613,0.243c0.162,0.162,0.243,0.367,0.243,0.613
				c0,0.247-0.081,0.448-0.243,0.603c-0.162,0.156-0.367,0.234-0.613,0.234H172.229z"/>
		</g>
	</g>
</g>
</svg>
