<?xml version="1.0" encoding="utf-8"?>
<!-- Generator: Adobe Illustrator 17.0.0, SVG Export Plug-In . SVG Version: 6.00 Build 0)  -->
<!DOCTYPE svg PUBLIC "-//W3C//DTD SVG 1.1//EN" "http://www.w3.org/Graphics/SVG/1.1/DTD/svg11.dtd">
<svg version="1.1" xmlns="http://www.w3.org/2000/svg" xmlns:xlink="http://www.w3.org/1999/xlink" x="0px" y="0px" width="180px"
	 height="20px" viewBox="0 0 180 20" enable-background="new 0 0 180 20" xml:space="preserve">
<g id="Layer_1">
</g>
<g id="Layer_1_copy">
	<g>
		<g>
			<path fill="#FFC864" d="M1.347,0h12.351v3.946H5.559V6.48h7.371v3.659H5.559v2.655h8.249v3.946H1.347V0z"/>
			<path fill="#FFC864" d="M17.323,0h7.261c2.347,0,3.971,0.669,5.002,1.817c0.899,0.957,1.36,2.248,1.36,3.898v0.048
				c0,2.559-1.25,4.257-3.159,5.141l3.664,5.835h-4.914l-3.093-5.07h-1.865v5.07h-4.256V0z M24.387,8.035
				c1.448,0,2.282-0.765,2.282-1.985V6.002c0-1.315-0.878-1.985-2.303-1.985h-2.786v4.018H24.387z"/>
			<path fill="#FFC864" d="M34.213,0h6.581c3.883,0,6.384,2.176,6.384,5.883V5.93c0,3.946-2.786,6.026-6.603,6.026h-2.106v4.783
				h-4.256V0z M40.488,8.322c1.514,0,2.435-0.861,2.435-2.176V6.098c0-1.435-0.921-2.2-2.457-2.2h-1.996v4.424H40.488z"/>
		</g>
		<g>
			<path fill="#FFFFFF" d="M55.324,15.055l1.386-1.648c1.255,1.086,2.51,1.705,4.14,1.705c1.424,0,2.323-0.656,2.323-1.648v-0.038
				c0-0.936-0.524-1.442-2.96-2.004c-2.791-0.674-4.365-1.499-4.365-3.915V7.468c0-2.248,1.873-3.803,4.477-3.803
				c1.911,0,3.428,0.581,4.758,1.648l-1.236,1.742c-1.18-0.88-2.36-1.349-3.559-1.349c-1.349,0-2.136,0.693-2.136,1.555V7.3
				c0,1.012,0.599,1.461,3.11,2.061c2.772,0.674,4.215,1.667,4.215,3.84v0.037c0,2.454-1.929,3.915-4.683,3.915
				C58.79,17.153,56.898,16.46,55.324,15.055z"/>
			<path fill="#FFFFFF" d="M67.006,15.411l5.713-6.481h-5.507V7.075h8.392V8.63l-5.713,6.482h5.713v1.854h-8.598V15.411z"/>
			<path fill="#FFFFFF" d="M83.785,16.965v-1.218c-0.674,0.806-1.705,1.424-3.203,1.424c-1.873,0-3.522-1.068-3.522-3.053v-0.037
				c0-2.192,1.705-3.241,4.009-3.241c1.199,0,1.967,0.169,2.735,0.412v-0.187c0-1.368-0.862-2.117-2.435-2.117
				c-1.105,0-1.929,0.244-2.828,0.618l-0.618-1.817c1.086-0.487,2.154-0.824,3.765-0.824c2.922,0,4.346,1.536,4.346,4.177v5.863
				H83.785z M83.841,12.826c-0.581-0.225-1.386-0.393-2.267-0.393c-1.424,0-2.267,0.581-2.267,1.536v0.037
				c0,0.937,0.843,1.461,1.911,1.461c1.498,0,2.623-0.843,2.623-2.079V12.826z"/>
			<path fill="#FFFFFF" d="M88.616,3.291h2.267v8.167l4.102-4.383h2.754l-3.934,4.027l4.065,5.863h-2.623l-2.978-4.271l-1.386,1.442
				v2.829h-2.267V3.291z"/>
			<path fill="#FFFFFF" d="M98.4,12.039v-0.037c0-3.278,2.229-5.133,4.589-5.133c1.63,0,2.66,0.824,3.372,1.742v-5.32h2.267v13.674
				h-2.267v-1.648c-0.731,1.03-1.761,1.855-3.372,1.855C100.667,17.172,98.4,15.317,98.4,12.039z M106.399,12.039v-0.037
				c0-1.911-1.349-3.166-2.866-3.166c-1.555,0-2.847,1.199-2.847,3.166v0.037c0,1.911,1.311,3.166,2.847,3.166
				C105.05,15.205,106.399,13.931,106.399,12.039z"/>
			<path fill="#FFFFFF" d="M110.734,12.076v-0.037c0-2.829,2.248-5.17,5.282-5.17c3.035,0,5.264,2.304,5.264,5.133v0.037
				c0,2.81-2.248,5.151-5.301,5.151C112.963,17.19,110.734,14.886,110.734,12.076z M119.013,12.076v-0.037
				c0-1.742-1.255-3.185-3.035-3.185c-1.817,0-2.978,1.424-2.978,3.147v0.037c0,1.723,1.255,3.184,3.016,3.184
				C117.852,15.223,119.013,13.781,119.013,12.076z"/>
			<path fill="#FFFFFF" d="M123.479,3.291h2.267v13.674h-2.267V3.291z"/>
			<path fill="#FFFFFF" d="M128.412,18.82l0.843-1.705c1.049,0.656,2.173,1.049,3.522,1.049c2.023,0,3.128-1.049,3.128-3.035v-0.768
				c-0.824,1.068-1.854,1.817-3.484,1.817c-2.323,0-4.496-1.723-4.496-4.627v-0.037c0-2.922,2.192-4.646,4.496-4.646
				c1.667,0,2.698,0.768,3.465,1.686v-1.48h2.267v7.867c0,1.667-0.431,2.903-1.255,3.728c-0.899,0.899-2.285,1.33-4.065,1.33
				C131.203,20,129.686,19.588,128.412,18.82z M135.923,11.552v-0.037c0-1.63-1.33-2.735-2.903-2.735
				c-1.573,0-2.81,1.086-2.81,2.716v0.038c0,1.63,1.255,2.735,2.81,2.735C134.593,14.268,135.923,13.144,135.923,11.552z"/>
			<path fill="#FFFFFF" d="M140.258,12.076v-0.037c0-2.829,2.248-5.17,5.282-5.17c3.035,0,5.264,2.304,5.264,5.133v0.037
				c0,2.81-2.248,5.151-5.301,5.151C142.488,17.19,140.258,14.886,140.258,12.076z M148.538,12.076v-0.037
				c0-1.742-1.255-3.185-3.035-3.185c-1.817,0-2.978,1.424-2.978,3.147v0.037c0,1.723,1.255,3.184,3.016,3.184
				C147.377,15.223,148.538,13.781,148.538,12.076z"/>
			<path fill="#FFFFFF" d="M151.875,15.411l5.713-6.481h-5.507V7.075h8.392V8.63l-5.713,6.482h5.713v1.854h-8.598V15.411z"/>
			<path fill="#FFFFFF" d="M168.653,16.965v-1.218c-0.674,0.806-1.705,1.424-3.203,1.424c-1.873,0-3.522-1.068-3.522-3.053v-0.037
				c0-2.192,1.705-3.241,4.009-3.241c1.199,0,1.967,0.169,2.735,0.412v-0.187c0-1.368-0.862-2.117-2.435-2.117
				c-1.105,0-1.929,0.244-2.828,0.618l-0.618-1.817c1.087-0.487,2.154-0.824,3.765-0.824c2.922,0,4.346,1.536,4.346,4.177v5.863
				H168.653z M168.71,12.826c-0.581-0.225-1.386-0.393-2.267-0.393c-1.424,0-2.267,0.581-2.267,1.536v0.037
				c0,0.937,0.843,1.461,1.911,1.461c1.498,0,2.623-0.843,2.623-2.079V12.826z"/>
			<path fill="#FFFFFF" d="M173.726,14.231V9.023h-1.255V7.075h1.255V4.359h2.267v2.716h2.66v1.948h-2.66v4.852
				c0,0.881,0.449,1.236,1.218,1.236c0.506,0,0.955-0.112,1.405-0.337v1.854c-0.562,0.319-1.199,0.506-2.042,0.506
				C174.907,17.134,173.726,16.403,173.726,14.231z"/>
		</g>
	</g>
</g>
</svg>
